<?xml version="1.0" standalone="no"?>
<!DOCTYPE svg PUBLIC "-//W3C//DTD SVG 20010904//EN"
 "http://www.w3.org/TR/2001/REC-SVG-20010904/DTD/svg10.dtd">
<svg version="1.0" xmlns="http://www.w3.org/2000/svg"
 width="1024.000000pt" height="1024.000000pt" viewBox="0 0 1024.000000 1024.000000"
 preserveAspectRatio="xMidYMid meet">
<metadata>
Created by potrace 1.14, written by Peter Selinger 2001-2017
</metadata>
<g transform="translate(0.000000,1024.000000) scale(0.100000,-0.100000)"
fill="#000000" stroke="none">
<path d="M4752 9243 c-13 -2 -56 -18 -95 -35 -40 -16 -100 -38 -135 -48 -34
-11 -76 -29 -93 -41 -28 -20 -35 -21 -86 -10 -127 25 -204 1 -289 -91 -39 -42
-60 -57 -90 -62 -21 -4 -76 -25 -121 -47 -45 -21 -94 -44 -108 -49 -15 -6 -45
-23 -68 -38 -23 -15 -69 -36 -102 -46 -33 -10 -72 -27 -88 -38 -33 -24 -74
-101 -83 -157 l-7 -41 -46 0 c-68 0 -170 -19 -216 -39 -130 -58 -211 -232
-183 -393 11 -62 11 -62 -19 -88 -17 -15 -63 -40 -103 -55 -90 -34 -140 -81
-170 -161 -20 -52 -22 -71 -16 -162 6 -100 5 -104 -22 -144 -24 -37 -27 -50
-26 -117 1 -50 9 -95 22 -131 l21 -55 -40 -39 c-21 -21 -39 -42 -39 -46 0 -5
-11 -22 -25 -38 -35 -41 -72 -120 -80 -169 -9 -54 9 -136 46 -218 35 -79 37
-107 6 -124 -13 -7 -39 -36 -57 -64 -81 -124 -30 -313 109 -405 l56 -37 7 -70
c7 -82 14 -101 63 -175 31 -47 35 -61 30 -93 -8 -55 24 -120 94 -187 l57 -56
13 -90 c15 -108 37 -222 56 -289 8 -27 25 -95 39 -150 85 -339 150 -442 291
-462 45 -6 45 -7 59 -57 8 -28 22 -89 31 -136 46 -221 92 -358 181 -531 69
-135 108 -195 221 -341 l90 -116 6 -174 c9 -214 9 -641 1 -689 -5 -29 -14 -39
-47 -57 -35 -18 -56 -21 -127 -19 -98 2 -138 -14 -178 -74 -21 -30 -23 -42
-18 -96 12 -133 73 -292 170 -443 54 -83 213 -251 301 -318 41 -31 52 -37 35
-17 l-25 28 108 -7 c60 -4 118 -9 130 -12 12 -2 69 -6 127 -9 58 -3 144 -8
191 -10 127 -7 193 -33 281 -114 66 -61 98 -75 124 -57 25 17 217 22 194 5
-12 -9 -11 -10 5 -4 11 4 45 9 75 12 39 5 62 13 80 31 59 57 137 95 220 108
48 7 305 34 375 39 71 6 256 22 331 30 22 2 45 0 51 -6 13 -13 161 134 233
229 63 84 160 272 195 377 23 67 27 92 23 157 -5 88 -18 109 -83 139 -48 22
-93 24 -165 5 -53 -14 -56 -14 -97 10 -71 41 -73 47 -72 234 0 91 4 283 8 426
l8 262 49 63 c214 278 315 462 389 709 14 47 39 148 55 225 37 181 34 175 79
175 47 0 124 26 144 48 84 94 217 569 283 1007 3 22 14 36 39 49 19 11 42 31
52 45 9 14 42 52 72 83 90 93 116 191 66 250 -34 41 -32 59 18 117 57 67 93
134 113 210 18 71 12 100 -37 187 -21 38 -29 65 -29 101 0 28 -7 67 -15 88
-18 42 -20 39 57 116 112 112 98 304 -27 387 -27 19 -51 40 -53 47 -2 7 11 41
28 75 27 54 33 78 41 187 10 123 10 126 -15 177 -28 56 -84 99 -146 111 -66
13 -145 47 -185 79 -22 18 -55 41 -72 50 -41 21 -42 39 -3 117 75 147 54 294
-57 405 -64 64 -119 82 -303 99 -35 3 -68 11 -72 18 -8 14 -34 124 -44 185 -8
54 -53 108 -102 123 -32 9 -49 7 -127 -20 -105 -35 -88 -45 -172 99 -83 143
-155 209 -251 232 -55 12 -108 2 -228 -43 l-61 -23 -61 55 c-135 122 -258 141
-391 59 -66 -41 -150 -43 -202 -4 -74 55 -116 67 -239 70 -63 1 -126 0 -138
-3z m68 -1945 c202 -82 230 -90 297 -90 64 1 64 1 228 86 32 17 58 21 135 21
127 0 151 -13 191 -103 34 -75 103 -147 172 -181 47 -23 119 -39 212 -47 66
-5 125 -21 125 -33 0 -4 11 -14 25 -21 14 -7 25 -20 25 -27 0 -8 4 -12 9 -9 5
3 12 -5 15 -18 3 -14 12 -31 19 -38 7 -7 21 -33 31 -58 10 -25 22 -54 27 -65
14 -34 32 -109 31 -130 -1 -10 4 -26 11 -34 9 -12 9 -13 0 -7 -7 4 -13 3 -13
-3 0 -5 -3 -17 -6 -25 -4 -11 -2 -15 8 -11 8 3 15 0 16 -7 8 -62 23 -120 42
-157 12 -24 24 -59 27 -77 3 -19 9 -34 14 -34 5 0 6 -7 3 -15 -4 -8 -1 -15 5
-15 6 0 11 -9 11 -20 0 -11 7 -23 15 -26 8 -4 15 -14 15 -23 0 -9 -3 -12 -8
-6 -4 6 -27 26 -52 46 -165 131 -335 187 -593 196 -253 9 -341 -16 -368 -106
-15 -51 2 -112 42 -145 28 -24 39 -26 120 -26 53 0 89 -4 89 -10 0 -5 -6 -10
-14 -10 -7 0 -45 -16 -85 -36 -80 -40 -185 -137 -193 -177 -5 -24 -3 -26 26
-20 17 3 36 10 42 14 6 5 25 10 43 11 18 1 35 6 38 11 2 4 13 5 23 2 10 -3 21
-1 25 5 8 12 28 14 23 1 -1 -5 -26 -27 -54 -49 -28 -22 -66 -64 -84 -94 l-32
-53 28 26 c62 58 181 126 239 137 32 7 60 11 62 9 1 -2 -22 -11 -52 -21 -86
-27 -173 -92 -222 -164 -48 -71 -84 -174 -82 -236 l1 -41 9 43 c10 53 85 192
133 248 29 34 144 104 170 104 3 0 -17 -21 -44 -46 -118 -110 -111 -286 14
-402 98 -90 257 -84 366 14 65 59 85 105 85 199 0 68 -4 87 -27 125 -14 25
-35 54 -47 64 -19 17 -29 46 -16 46 3 0 33 -14 68 -31 82 -42 163 -126 207
-216 37 -75 63 -95 81 -61 40 75 -86 263 -236 353 -115 69 -288 104 -411 85
-49 -8 -70 -8 -80 1 -12 9 -13 9 -9 -3 4 -9 -4 -19 -20 -26 -14 -6 -25 -8 -25
-4 1 19 49 63 75 68 50 9 172 72 194 100 20 25 24 26 84 20 128 -13 267 -49
267 -68 0 -5 8 -8 18 -6 9 2 16 -3 14 -9 -1 -7 3 -13 10 -13 6 0 9 -2 6 -5 -3
-3 17 -28 43 -55 26 -27 51 -60 55 -72 3 -12 16 -30 28 -40 18 -15 19 -19 6
-28 -13 -9 -8 -14 12 -11 3 0 10 -19 13 -42 5 -26 18 -52 35 -69 16 -14 26
-29 22 -32 -3 -3 -1 -6 5 -6 6 0 14 -12 18 -27 3 -15 12 -31 18 -35 9 -6 8
-11 -3 -17 -12 -9 -12 -11 3 -17 9 -3 14 -10 11 -15 -3 -5 -1 -9 4 -9 9 0 31
-92 37 -160 9 -91 -2 -275 -21 -350 -3 -14 -8 -38 -11 -55 -9 -62 -75 -313
-100 -380 -14 -38 -32 -88 -40 -110 -15 -45 -41 -106 -90 -212 -18 -40 -33
-76 -33 -79 0 -4 -11 -22 -25 -40 -14 -18 -25 -37 -25 -43 0 -6 -5 -11 -12
-11 -6 0 -9 -3 -5 -6 3 -3 -5 -18 -19 -32 -13 -15 -24 -31 -24 -35 0 -5 -12
-21 -27 -37 -16 -15 -41 -42 -56 -59 -16 -17 -41 -34 -55 -37 -15 -4 -33 -12
-41 -18 -11 -8 -13 -8 -7 2 4 6 2 12 -3 12 -6 0 -11 5 -11 12 0 20 -80 119
-113 139 -45 27 -77 24 -120 -12 l-37 -31 -718 6 c-394 3 -733 8 -752 12 -19
3 -52 19 -72 35 -22 17 -49 29 -67 29 -39 0 -83 -38 -100 -86 -29 -80 -59
-104 -81 -64 -6 11 -17 20 -25 20 -22 0 -98 82 -125 136 -14 27 -28 51 -33 52
-9 4 -47 86 -47 101 0 6 -3 11 -8 11 -4 0 -16 17 -26 38 -10 20 -22 44 -27 52
-5 8 -16 31 -25 50 -9 19 -23 48 -31 64 -9 16 -19 43 -24 60 -4 17 -21 76 -38
131 -17 55 -33 109 -35 120 -2 11 -18 76 -34 145 -56 228 -63 282 -65 470 -2
148 5 216 23 234 5 5 10 19 10 30 0 11 14 49 31 85 18 36 37 77 43 91 5 14 18
33 28 43 10 10 18 27 18 37 0 11 7 20 15 20 9 0 18 7 21 15 3 8 29 32 58 52
28 21 56 43 61 49 14 16 104 48 112 40 3 -3 -1 -6 -10 -6 -9 0 -18 -3 -20 -7
-6 -9 85 -9 99 -1 16 9 124 0 138 -11 7 -6 21 -9 30 -5 11 4 16 1 16 -11 0 -9
4 -14 8 -11 7 4 40 -10 122 -53 l35 -19 -72 5 c-227 17 -497 -128 -585 -312
-37 -79 -36 -123 3 -153 l29 -24 0 27 c0 46 59 142 124 202 54 50 182 123 216
123 6 0 -11 -21 -37 -47 -91 -89 -113 -178 -73 -286 42 -112 154 -183 277
-175 53 3 71 10 120 43 78 55 113 120 113 215 0 84 -10 111 -62 174 -37 43
-39 48 -17 41 101 -30 201 -151 260 -313 l20 -57 -5 55 c-11 131 -128 305
-245 364 -45 24 -120 46 -153 46 -16 0 -28 5 -28 11 0 6 8 8 18 5 9 -2 37 -8
62 -11 102 -16 257 -110 308 -187 14 -21 27 -37 29 -34 7 6 -35 85 -73 139
-19 26 -32 47 -29 47 10 0 55 -49 55 -59 0 -6 6 -8 14 -5 15 6 77 -51 124
-111 l24 -30 -7 65 c-16 153 -84 260 -219 349 -28 18 -66 36 -85 39 -29 6 -19
8 47 12 72 5 86 9 109 32 20 21 27 39 30 80 10 137 -89 186 -352 175 -289 -13
-486 -89 -646 -249 l-76 -77 9 47 c15 77 80 276 94 293 8 8 14 19 14 22 0 4 8
15 18 25 45 49 53 61 118 182 8 14 14 32 14 41 0 8 4 19 9 25 5 5 12 25 15 46
10 67 56 233 76 274 11 22 20 45 20 51 0 16 36 44 45 36 4 -5 5 -2 1 4 -9 16
12 56 25 47 5 -3 17 0 26 7 8 7 45 15 82 16 121 5 199 18 262 45 38 17 111 82
145 132 42 59 144 51 334 -26z m973 -1215 c-7 -2 -21 -2 -30 0 -10 3 -4 5 12
5 17 0 24 -2 18 -5z m160 0 c-7 -2 -19 -2 -25 0 -7 3 -2 5 12 5 14 0 19 -2 13
-5z m-1870 -10 c-7 -2 -19 -2 -25 0 -7 3 -2 5 12 5 14 0 19 -2 13 -5z m-60
-10 c-7 -2 -21 -2 -30 0 -10 3 -4 5 12 5 17 0 24 -2 18 -5z m-60 -10 c-7 -2
-19 -2 -25 0 -7 3 -2 5 12 5 14 0 19 -2 13 -5z m-53 -7 c0 -3 -4 -8 -10 -11
-5 -3 -10 -1 -10 4 0 6 5 11 10 11 6 0 10 -2 10 -4z m417 -142 c-3 -3 -12 -4
-19 -1 -8 3 -5 6 6 6 11 1 17 -2 13 -5z m1570 -40 c-3 -3 -12 -4 -19 -1 -8 3
-5 6 6 6 11 1 17 -2 13 -5z m-1743 -125 c31 -25 33 -57 5 -93 -24 -31 -52 -33
-96 -6 -43 26 -44 59 -2 94 37 31 58 33 93 5z m1774 -12 c36 -75 -64 -142
-123 -82 -32 31 -32 60 2 91 39 36 102 31 121 -9z m209 -275 c-5 -49 -24 -74
-83 -108 -58 -34 -128 -41 -193 -19 -52 17 -71 37 -71 74 0 26 -2 25 55 1 26
-11 61 -20 79 -20 44 0 119 50 158 105 30 43 34 45 46 28 9 -11 12 -34 9 -61z
m-1789 -8 c9 -91 -147 -175 -239 -129 -47 24 -69 45 -69 65 0 16 4 16 55 2 72
-20 117 -7 182 53 26 24 53 43 58 41 6 -1 11 -16 13 -32z m1566 -1560 c9 -8
16 -21 16 -27 0 -7 9 -18 20 -24 10 -7 22 -29 26 -50 4 -21 10 -40 14 -43 4
-3 10 -18 14 -33 5 -21 4 -27 -5 -21 -9 5 -10 2 -6 -9 4 -10 -4 -28 -18 -46
-14 -16 -25 -34 -25 -40 0 -6 -6 -11 -12 -11 -7 0 -28 -21 -47 -45 -18 -25
-37 -45 -42 -45 -5 0 -9 -8 -9 -17 0 -9 -3 -13 -7 -10 -8 9 -53 -57 -53 -77 0
-9 -6 -16 -13 -16 -7 0 -14 -10 -14 -22 -1 -13 -7 -24 -13 -26 -5 -2 -10 -10
-10 -17 0 -8 -6 -18 -13 -22 -8 -4 -26 -28 -40 -53 -15 -25 -27 -41 -27 -37 0
5 -7 2 -15 -7 -8 -8 -15 -19 -15 -25 0 -6 -4 -11 -9 -11 -5 0 -19 -11 -32 -25
-13 -13 -28 -25 -34 -25 -5 0 -22 -15 -36 -33 -37 -45 -188 -121 -268 -133
-20 -3 -54 -10 -76 -14 -90 -20 -395 4 -395 31 0 5 -7 9 -15 9 -20 0 -157 96
-177 125 -4 5 -16 21 -27 35 -65 81 -81 105 -81 121 0 11 -3 19 -8 19 -15 0
-41 65 -47 119 -6 43 -5 52 6 47 8 -4 5 0 -5 8 -11 9 -17 19 -13 22 4 4 13 2
20 -5 8 -6 22 -9 31 -5 9 3 16 1 16 -5 0 -6 9 -11 20 -11 12 0 17 -5 14 -14
-3 -8 0 -17 7 -22 8 -5 10 -3 5 7 -5 9 -3 8 6 -2 7 -8 21 -18 31 -22 9 -3 17
-11 17 -17 0 -5 17 -10 38 -10 21 0 32 -4 25 -8 -8 -5 5 -13 35 -21 26 -8 52
-17 57 -22 6 -4 48 -17 94 -28 130 -33 422 -27 541 11 19 6 37 11 40 10 3 0
10 4 16 9 6 5 19 7 28 3 9 -3 16 -1 16 5 0 6 9 11 19 11 11 0 22 4 26 10 3 5
12 7 20 3 10 -3 15 1 15 14 0 12 11 24 28 32 25 10 26 10 8 -4 -11 -8 -14 -15
-8 -15 12 0 31 17 65 59 11 13 25 20 33 17 8 -3 12 -2 9 3 -7 12 14 25 40 26
13 0 20 7 20 20 0 11 4 26 9 33 6 9 3 12 -9 10 -10 -2 -20 3 -22 10 -3 8 6 12
26 12 16 0 33 5 37 12 5 8 0 9 -14 6 -18 -5 -22 -2 -23 20 l-2 27 -4 -26 c-3
-21 -9 -26 -23 -22 -11 3 -28 2 -37 -2 -10 -5 -24 -9 -32 -11 -8 -1 -17 -6
-20 -11 -3 -4 -23 -9 -45 -11 -31 -2 -37 1 -32 13 3 8 0 15 -7 15 -7 0 2 9 18
20 17 11 40 27 52 36 25 18 178 174 238 242 42 47 47 49 69 26z m-1670 -31 c3
-8 10 -11 16 -8 6 3 58 -42 118 -100 59 -59 117 -115 130 -125 14 -11 19 -21
12 -25 -5 -3 -22 3 -36 14 -15 11 -31 18 -37 14 -6 -4 -8 0 -4 10 3 10 2 17
-3 17 -6 0 -10 -4 -10 -10 0 -5 -6 -7 -14 -4 -8 3 -12 12 -10 19 4 10 -1 12
-15 8 -11 -3 -19 -9 -16 -13 8 -13 -10 -20 -25 -9 -13 8 -13 10 0 18 8 6 11
13 7 17 -4 4 -14 -1 -23 -12 -15 -18 -15 -18 -11 4 5 22 5 23 -18 8 -31 -21
-35 -20 -35 5 0 12 -5 19 -12 16 -15 -5 -37 21 -38 44 0 9 -7 19 -14 22 -23 9
-32 78 -13 92 22 16 45 15 51 -2z m617 -38 c30 -6 232 -9 302 -5 26 1 50 6 53
11 3 5 10 9 15 9 6 0 7 -5 3 -12 -5 -7 -3 -8 6 -3 13 8 369 9 377 1 8 -8 -52
-56 -110 -87 -32 -17 -82 -35 -110 -40 -29 -4 -88 -15 -132 -23 -105 -20 -310
-20 -419 -1 -131 23 -266 70 -320 111 -26 20 -43 40 -40 46 7 11 313 5 375 -7z
m-156 -159 c196 -41 520 -36 765 10 25 4 25 4 -4 -20 -68 -57 -212 -82 -446
-79 -153 2 -275 25 -375 73 -71 33 -51 38 60 16z m-125 -91 c16 -19 1 -19 -24
0 -16 12 -17 15 -4 15 8 0 21 -7 28 -15z m940 -19 c0 -2 -7 -6 -15 -10 -8 -3
-15 -1 -15 4 0 6 7 10 15 10 8 0 15 -2 15 -4z m-1083 -32 c-3 -3 -12 -4 -19
-1 -8 3 -5 6 6 6 11 1 17 -2 13 -5z m16 -35 c4 -3 2 -11 -6 -18 -12 -9 -14 -7
-14 14 0 14 2 22 6 18 3 -4 10 -10 14 -14z m1359 -71 c-7 -7 -12 -8 -12 -2 0
14 12 26 19 19 2 -3 -1 -11 -7 -17z"/>
<path d="M6325 6650 c3 -5 8 -10 11 -10 2 0 4 5 4 10 0 6 -5 10 -11 10 -5 0
-7 -4 -4 -10z"/>
<path d="M3810 6006 c0 -2 7 -7 16 -10 8 -3 12 -2 9 4 -6 10 -25 14 -25 6z"/>
<path d="M4560 4638 c-70 -114 -63 -315 15 -405 71 -83 302 -202 436 -225 86
-15 167 4 304 71 212 104 275 176 275 316 0 87 -20 184 -45 221 l-20 29 -5
-49 c-5 -35 -13 -53 -31 -67 -46 -36 -73 -19 -99 64 -6 20 -15 37 -20 37 -4 0
-11 -17 -15 -37 -10 -58 -50 -102 -124 -136 -60 -29 -75 -32 -166 -32 -90 0
-105 3 -153 28 -69 36 -131 93 -150 137 l-14 35 -17 -44 c-19 -51 -38 -66 -72
-58 -32 8 -59 56 -59 106 0 49 -13 52 -40 9z"/>
<path d="M5801 3529 c-7 -12 -10 -23 -8 -26 3 -3 11 5 17 17 15 28 8 35 -9 9z"/>
<path d="M5815 3500 c-3 -6 1 -7 9 -4 18 7 21 14 7 14 -6 0 -13 -4 -16 -10z"/>
<path d="M5695 3420 c-10 -11 -16 -20 -13 -20 3 0 15 9 28 20 13 11 19 20 13
20 -5 0 -18 -9 -28 -20z"/>
</g>
</svg>
