<svg width="500" height="500" viewBox="0 0 500 500" fill="none" xmlns="http://www.w3.org/2000/svg">
<g clip-path="url(#clip0_430_18)">
<path d="M500 0H0V500H500V0Z" fill="#BA53B3"/>
<path d="M80.4445 434.6H33.7778V404.6H41.7778V425.8H52.9111V406.467H60.9111V425.8H72.4445V404.2H80.4445V434.6ZM80.4445 400.619L56.9111 386.952L33.7778 400.486V390.486L50.6445 381.219V380.019L33.7778 370.752V360.752L56.9111 374.286L80.4445 360.619V370.619L63.1778 380.019V381.219L80.4445 390.619V400.619ZM80.4445 354.782H33.7778V335.582C33.7778 332.649 34.3778 330.071 35.5778 327.849C36.7334 325.582 38.3778 323.827 40.5111 322.582C42.6445 321.293 45.1778 320.649 48.1111 320.649H49.0445C51.9334 320.649 54.4667 321.316 56.6445 322.649C58.7778 323.938 60.4445 325.716 61.6445 327.982C62.8 330.204 63.3778 332.738 63.3778 335.582V345.982H80.4445V354.782ZM55.3778 345.982V336.449C55.3778 334.36 54.8 332.671 53.6445 331.382C52.4889 330.093 50.9111 329.449 48.9111 329.449H48.2445C46.2445 329.449 44.6667 330.093 43.5111 331.382C42.3556 332.671 41.7778 334.36 41.7778 336.449V345.982H55.3778ZM80.4445 314.548H33.7778V284.548H41.7778V305.748H52.9111V286.414H60.9111V305.748H72.4445V284.148H80.4445V314.548ZM80.4445 277.633H33.7778V257.367C33.7778 254.433 34.2889 251.878 35.3111 249.7C36.3334 247.522 37.7778 245.833 39.6445 244.633C41.5111 243.433 43.7111 242.833 46.2445 242.833H47.0445C49.8445 242.833 52.1111 243.5 53.8445 244.833C55.5778 246.167 56.8445 247.811 57.6445 249.767H58.8445C58.9334 247.989 59.5556 246.611 60.7112 245.633C61.8223 244.656 63.3111 244.167 65.1778 244.167H80.4445V252.967H66.4445C65.3778 252.967 64.5111 253.256 63.8445 253.833C63.1778 254.367 62.8445 255.278 62.8445 256.567V268.833H80.4445V277.633ZM54.8445 268.833V258.3C54.8445 256.211 54.2889 254.589 53.1778 253.433C52.0223 252.233 50.5111 251.633 48.6445 251.633H47.9778C46.1111 251.633 44.6223 252.211 43.5111 253.367C42.3556 254.522 41.7778 256.167 41.7778 258.3V268.833H54.8445ZM80.4445 235.511H33.7778V226.711H80.4445V235.511ZM80.4445 217.933H33.7778V187.933H41.7778V209.133H52.9111V189.8H60.9111V209.133H72.4445V187.533H80.4445V217.933ZM80.4445 181.019H33.7778V164.286L74.4445 155.019V153.819H33.7778V145.152H80.4445V161.886L39.7778 171.152V172.352H80.4445V181.019ZM81.3778 118.624C81.3778 124.402 79.7778 128.98 76.5778 132.358C73.3334 135.736 68.7112 137.424 62.7112 137.424H51.5111C45.5111 137.424 40.9111 135.736 37.7111 132.358C34.4667 128.98 32.8445 124.402 32.8445 118.624C32.8445 112.891 34.4223 108.469 37.5778 105.358C40.6889 102.202 44.9778 100.624 50.4445 100.624H50.8445V109.291H50.1778C47.4223 109.291 45.1556 110.069 43.3778 111.624C41.6 113.136 40.7111 115.469 40.7111 118.624C40.7111 121.736 41.6667 124.18 43.5778 125.958C45.4889 127.736 48.0889 128.624 51.3778 128.624H62.8445C66.0889 128.624 68.6889 127.736 70.6445 125.958C72.5556 124.18 73.5111 121.736 73.5111 118.624C73.5111 115.469 72.6223 113.136 70.8445 111.624C69.0223 110.069 66.7556 109.291 64.0445 109.291H62.8445V100.624H63.7778C69.2445 100.624 73.5556 102.202 76.7112 105.358C79.8223 108.469 81.3778 112.891 81.3778 118.624ZM80.4445 93.4542H33.7778V63.4541H41.7778V84.6541H52.9111V65.3208H60.9111V84.6541H72.4445V63.0541H80.4445V93.4542Z" fill="white"/>
<path d="M232.461 209.13H302.465V253.086H232.461V323.09H184.842V253.086H114.431V209.13H184.842V138.719H232.461V209.13ZM387.064 86.216H430.613V376H375.668V180.64H308.92V141.975L315.432 141.568C336.596 140.211 352.74 135.463 363.865 127.323C375.261 118.912 382.994 105.209 387.064 86.216Z" fill="white"/>
<path d="M340.85 432.728L343.424 428.504H348.341L339.53 442.727V452H335.075V442.727L326.198 428.504H331.247L333.854 432.761C335.966 436.281 337.143 438.261 337.385 438.701C337.979 437.645 339.134 435.654 340.85 432.728ZM368.143 428.504V432.497H355.273V438.041H366.922V441.869H355.273V448.007H368.077V452H350.818V428.504H368.143ZM393.176 452H388.457L386.609 446.819H376.313L374.498 452H369.911L378.854 428.504H384.068L393.176 452ZM378.557 440.483L377.666 443.024H385.256L384.332 440.483C383.562 438.525 382.594 435.841 381.428 432.431C380.504 435.159 379.547 437.843 378.557 440.483ZM414.299 445.763L414.497 449.261C414.519 450.383 414.761 451.296 415.223 452H410.636C410.24 451.34 410.031 450.405 410.009 449.195L409.91 446.621C409.844 445.191 409.514 444.201 408.92 443.651C408.348 443.079 407.424 442.793 406.148 442.793H400.34V452H395.885V428.504H406.544C409.162 428.504 411.197 429.098 412.649 430.286C414.101 431.474 414.827 433.091 414.827 435.137C414.827 437.953 413.518 439.823 410.9 440.747C412.088 441.121 412.935 441.715 413.441 442.529C413.969 443.321 414.255 444.399 414.299 445.763ZM400.34 432.167V439.295H406.28C407.534 439.295 408.502 438.987 409.184 438.371C409.888 437.733 410.24 436.82 410.24 435.632C410.24 434.51 409.877 433.652 409.151 433.058C408.447 432.464 407.435 432.167 406.115 432.167H400.34ZM427.764 452.528C424.574 452.528 422.099 451.813 420.339 450.383C418.601 448.953 417.721 446.907 417.699 444.245H422.088C422.11 445.917 422.605 447.116 423.573 447.842C424.563 448.568 426.004 448.931 427.896 448.931C429.436 448.931 430.613 448.645 431.427 448.073C432.241 447.479 432.648 446.632 432.648 445.532C432.648 444.608 432.296 443.904 431.592 443.42C430.91 442.936 429.656 442.507 427.83 442.133L425.85 441.737C420.812 440.791 418.293 438.415 418.293 434.609C418.293 432.585 419.063 430.979 420.603 429.791C422.143 428.581 424.277 427.976 427.005 427.976C430.107 427.976 432.45 428.636 434.034 429.956C435.64 431.276 436.487 433.124 436.575 435.5H432.252C432.164 434.158 431.713 433.168 430.899 432.53C430.107 431.892 428.831 431.573 427.071 431.573C425.707 431.573 424.662 431.826 423.936 432.332C423.21 432.838 422.847 433.553 422.847 434.477C422.847 435.423 423.177 436.149 423.837 436.655C424.519 437.161 425.718 437.59 427.434 437.942L429.48 438.338C432.23 438.888 434.21 439.713 435.42 440.813C436.652 441.891 437.268 443.387 437.268 445.301C437.268 447.589 436.432 449.371 434.76 450.647C433.088 451.901 430.756 452.528 427.764 452.528Z" fill="white"/>
</g>
<defs>
<clipPath id="clip0_430_18">
<rect width="500" height="500" fill="white"/>
</clipPath>
</defs>
</svg>
