<svg width="500" height="500" viewBox="0 0 500 500" fill="none" xmlns="http://www.w3.org/2000/svg">
<g clip-path="url(#clip0_430_11)">
<path d="M500 0H0V500H500V0Z" fill="#BBBEA0"/>
<path d="M80.4445 434.6H33.7778V404.6H41.7778V425.8H52.9111V406.467H60.9111V425.8H72.4445V404.2H80.4445V434.6ZM80.4445 400.619L56.9111 386.952L33.7778 400.486V390.486L50.6445 381.219V380.019L33.7778 370.752V360.752L56.9111 374.286L80.4445 360.619V370.619L63.1778 380.019V381.219L80.4445 390.619V400.619ZM80.4445 354.782H33.7778V335.582C33.7778 332.649 34.3778 330.071 35.5778 327.849C36.7334 325.582 38.3778 323.827 40.5111 322.582C42.6445 321.293 45.1778 320.649 48.1111 320.649H49.0445C51.9334 320.649 54.4667 321.316 56.6445 322.649C58.7778 323.938 60.4445 325.716 61.6445 327.982C62.8 330.204 63.3778 332.738 63.3778 335.582V345.982H80.4445V354.782ZM55.3778 345.982V336.449C55.3778 334.36 54.8 332.671 53.6445 331.382C52.4889 330.093 50.9111 329.449 48.9111 329.449H48.2445C46.2445 329.449 44.6667 330.093 43.5111 331.382C42.3556 332.671 41.7778 334.36 41.7778 336.449V345.982H55.3778ZM80.4445 314.548H33.7778V284.548H41.7778V305.748H52.9111V286.414H60.9111V305.748H72.4445V284.148H80.4445V314.548ZM80.4445 277.633H33.7778V257.367C33.7778 254.433 34.2889 251.878 35.3111 249.7C36.3334 247.522 37.7778 245.833 39.6445 244.633C41.5111 243.433 43.7112 242.833 46.2445 242.833H47.0445C49.8445 242.833 52.1111 243.5 53.8445 244.833C55.5778 246.167 56.8445 247.811 57.6445 249.767H58.8445C58.9334 247.989 59.5556 246.611 60.7112 245.633C61.8223 244.656 63.3111 244.167 65.1778 244.167H80.4445V252.967H66.4445C65.3778 252.967 64.5111 253.256 63.8445 253.833C63.1778 254.367 62.8445 255.278 62.8445 256.567V268.833H80.4445V277.633ZM54.8445 268.833V258.3C54.8445 256.211 54.2889 254.589 53.1778 253.433C52.0223 252.233 50.5111 251.633 48.6445 251.633H47.9778C46.1111 251.633 44.6223 252.211 43.5111 253.367C42.3556 254.522 41.7778 256.167 41.7778 258.3V268.833H54.8445ZM80.4445 235.511H33.7778V226.711H80.4445V235.511ZM80.4445 217.933H33.7778V187.933H41.7778V209.133H52.9111V189.8H60.9111V209.133H72.4445V187.533H80.4445V217.933ZM80.4445 181.019H33.7778V164.286L74.4445 155.019V153.819H33.7778V145.152H80.4445V161.886L39.7778 171.152V172.352H80.4445V181.019ZM81.3778 118.624C81.3778 124.402 79.7778 128.98 76.5778 132.358C73.3334 135.736 68.7112 137.424 62.7112 137.424H51.5111C45.5111 137.424 40.9111 135.736 37.7111 132.358C34.4667 128.98 32.8445 124.402 32.8445 118.624C32.8445 112.891 34.4223 108.469 37.5778 105.358C40.6889 102.202 44.9778 100.624 50.4445 100.624H50.8445V109.291H50.1778C47.4223 109.291 45.1556 110.069 43.3778 111.624C41.6 113.136 40.7111 115.469 40.7111 118.624C40.7111 121.736 41.6667 124.18 43.5778 125.958C45.4889 127.736 48.0889 128.624 51.3778 128.624H62.8445C66.0889 128.624 68.6889 127.736 70.6445 125.958C72.5556 124.18 73.5111 121.736 73.5111 118.624C73.5111 115.469 72.6223 113.136 70.8445 111.624C69.0223 110.069 66.7556 109.291 64.0445 109.291H62.8445V100.624H63.7778C69.2445 100.624 73.5556 102.202 76.7112 105.358C79.8223 108.469 81.3778 112.891 81.3778 118.624ZM80.4445 93.4542H33.7778V63.4541H41.7778V84.6541H52.9111V65.3208H60.9111V84.6541H72.4445V63.0541H80.4445V93.4542Z" fill="white"/>
<path d="M344.867 397.978C323.214 397.978 304.03 394.141 287.311 386.467C270.592 378.792 257.437 367.83 247.844 353.578C238.526 339.052 233.867 321.922 233.867 302.189V294.789H286.489V300.544C286.489 315.892 291.833 328.226 302.522 337.544C313.211 346.589 327.326 351.111 344.867 351.111C362.681 351.111 376.386 346.863 385.978 338.367C395.844 329.87 400.778 319.181 400.778 306.3V302.189C400.778 293.419 398.586 286.292 394.2 280.811C389.814 275.33 383.922 271.356 376.522 268.889C369.122 266.148 360.763 264.778 351.444 264.778H293.889V207.222L386.8 157.889V151.311H241.267V104.444H445.178V174.333L358.433 220.378V226.956H373.644C386.526 226.956 398.997 229.559 411.056 234.767C423.389 239.974 433.53 248.059 441.478 259.022C449.426 269.711 453.4 283.689 453.4 300.956V305.889C453.4 324.526 448.878 340.833 439.833 354.811C430.789 368.514 418.044 379.203 401.6 386.878C385.43 394.278 366.519 397.978 344.867 397.978Z" fill="white"/>
<path d="M164.111 310.333V259.667H114.111V221.667H164.111V171H203.444V221.667H253.444V259.667H203.444V310.333H164.111Z" fill="white"/>
<path d="M362.533 454.444V446.411L354.6 431.111H359.5L364.433 441.111H365.033L369.967 431.111H374.867L366.933 446.411V454.444H362.533ZM377.335 454.444V431.111H392.335V435.111H381.735V440.678H391.401V444.678H381.735V450.444H392.535V454.444H377.335ZM394.191 454.444L400.325 431.111H407.991L414.125 454.444H409.591L408.325 449.311H399.991L398.725 454.444H394.191ZM401.025 445.244H407.291L404.458 433.878H403.858L401.025 445.244ZM416.918 454.444V431.111H427.051C428.518 431.111 429.796 431.367 430.885 431.878C431.973 432.389 432.818 433.111 433.418 434.044C434.018 434.978 434.318 436.078 434.318 437.344V437.744C434.318 439.144 433.985 440.278 433.318 441.144C432.651 442.011 431.829 442.644 430.851 443.044V443.644C431.74 443.689 432.429 444 432.918 444.578C433.407 445.133 433.651 445.878 433.651 446.811V454.444H429.251V447.444C429.251 446.911 429.107 446.478 428.818 446.144C428.551 445.811 428.096 445.644 427.451 445.644H421.318V454.444H416.918ZM421.318 441.644H426.585C427.629 441.644 428.44 441.367 429.018 440.811C429.618 440.233 429.918 439.478 429.918 438.544V438.211C429.918 437.278 429.629 436.533 429.051 435.978C428.473 435.4 427.651 435.111 426.585 435.111H421.318V441.644ZM446.079 454.911C444.279 454.911 442.69 454.589 441.312 453.944C439.935 453.3 438.857 452.378 438.079 451.178C437.301 449.978 436.912 448.533 436.912 446.844V445.911H441.246V446.844C441.246 448.244 441.679 449.3 442.546 450.011C443.412 450.7 444.59 451.044 446.079 451.044C447.59 451.044 448.712 450.744 449.446 450.144C450.201 449.544 450.579 448.778 450.579 447.844C450.579 447.2 450.39 446.678 450.012 446.278C449.657 445.878 449.123 445.556 448.412 445.311C447.723 445.044 446.879 444.8 445.879 444.578L445.112 444.411C443.512 444.056 442.135 443.611 440.979 443.078C439.846 442.522 438.968 441.8 438.346 440.911C437.746 440.022 437.446 438.867 437.446 437.444C437.446 436.022 437.779 434.811 438.446 433.811C439.135 432.789 440.09 432.011 441.312 431.478C442.557 430.922 444.012 430.644 445.679 430.644C447.346 430.644 448.823 430.933 450.112 431.511C451.423 432.067 452.446 432.911 453.179 434.044C453.935 435.156 454.312 436.556 454.312 438.244V439.244H449.979V438.244C449.979 437.356 449.801 436.644 449.446 436.111C449.112 435.556 448.623 435.156 447.979 434.911C447.335 434.644 446.568 434.511 445.679 434.511C444.346 434.511 443.357 434.767 442.712 435.278C442.09 435.767 441.779 436.444 441.779 437.311C441.779 437.889 441.923 438.378 442.212 438.778C442.523 439.178 442.979 439.511 443.579 439.778C444.179 440.044 444.946 440.278 445.879 440.478L446.646 440.644C448.312 441 449.757 441.456 450.979 442.011C452.223 442.567 453.19 443.3 453.879 444.211C454.568 445.122 454.912 446.289 454.912 447.711C454.912 449.133 454.546 450.389 453.812 451.478C453.101 452.544 452.079 453.389 450.746 454.011C449.435 454.611 447.879 454.911 446.079 454.911Z" fill="white"/>
</g>
<defs>
<clipPath id="clip0_430_11">
<rect width="500" height="500" fill="white"/>
</clipPath>
</defs>
</svg>
