<svg width="500" height="500" viewBox="0 0 500 500" fill="none" xmlns="http://www.w3.org/2000/svg">
<g clip-path="url(#clip0_431_26)">
<path d="M500 0H0V500H500V0Z" fill="#DD4E4E"/>
<path d="M80.4445 434.6H33.7778V404.6H41.7778V425.8H52.9111V406.467H60.9111V425.8H72.4445V404.2H80.4445V434.6ZM80.4445 400.619L56.9111 386.952L33.7778 400.486V390.486L50.6445 381.219V380.019L33.7778 370.752V360.752L56.9111 374.286L80.4445 360.619V370.619L63.1778 380.019V381.219L80.4445 390.619V400.619ZM80.4445 354.782H33.7778V335.582C33.7778 332.649 34.3778 330.071 35.5778 327.849C36.7334 325.582 38.3778 323.827 40.5111 322.582C42.6445 321.293 45.1778 320.649 48.1111 320.649H49.0445C51.9334 320.649 54.4667 321.316 56.6445 322.649C58.7778 323.938 60.4445 325.716 61.6445 327.982C62.8 330.204 63.3778 332.738 63.3778 335.582V345.982H80.4445V354.782ZM55.3778 345.982V336.449C55.3778 334.36 54.8 332.671 53.6445 331.382C52.4889 330.093 50.9111 329.449 48.9111 329.449H48.2445C46.2445 329.449 44.6667 330.093 43.5111 331.382C42.3556 332.671 41.7778 334.36 41.7778 336.449V345.982H55.3778ZM80.4445 314.548H33.7778V284.548H41.7778V305.748H52.9111V286.414H60.9111V305.748H72.4445V284.148H80.4445V314.548ZM80.4445 277.633H33.7778V257.367C33.7778 254.433 34.2889 251.878 35.3111 249.7C36.3334 247.522 37.7778 245.833 39.6445 244.633C41.5111 243.433 43.7111 242.833 46.2445 242.833H47.0445C49.8445 242.833 52.1111 243.5 53.8445 244.833C55.5778 246.167 56.8445 247.811 57.6445 249.767H58.8445C58.9334 247.989 59.5556 246.611 60.7112 245.633C61.8223 244.656 63.3111 244.167 65.1778 244.167H80.4445V252.967H66.4445C65.3778 252.967 64.5111 253.256 63.8445 253.833C63.1778 254.367 62.8445 255.278 62.8445 256.567V268.833H80.4445V277.633ZM54.8445 268.833V258.3C54.8445 256.211 54.2889 254.589 53.1778 253.433C52.0223 252.233 50.5111 251.633 48.6445 251.633H47.9778C46.1111 251.633 44.6223 252.211 43.5111 253.367C42.3556 254.522 41.7778 256.167 41.7778 258.3V268.833H54.8445ZM80.4445 235.511H33.7778V226.711H80.4445V235.511ZM80.4445 217.933H33.7778V187.933H41.7778V209.133H52.9111V189.8H60.9111V209.133H72.4445V187.533H80.4445V217.933ZM80.4445 181.019H33.7778V164.286L74.4445 155.019V153.819H33.7778V145.152H80.4445V161.886L39.7778 171.152V172.352H80.4445V181.019ZM81.3778 118.624C81.3778 124.402 79.7778 128.98 76.5778 132.358C73.3334 135.736 68.7112 137.424 62.7112 137.424H51.5111C45.5111 137.424 40.9111 135.736 37.7111 132.358C34.4667 128.98 32.8445 124.402 32.8445 118.624C32.8445 112.891 34.4223 108.469 37.5778 105.358C40.6889 102.202 44.9778 100.624 50.4445 100.624H50.8445V109.291H50.1778C47.4223 109.291 45.1556 110.069 43.3778 111.624C41.6 113.136 40.7111 115.469 40.7111 118.624C40.7111 121.736 41.6667 124.18 43.5778 125.958C45.4889 127.736 48.0889 128.624 51.3778 128.624H62.8445C66.0889 128.624 68.6889 127.736 70.6445 125.958C72.5556 124.18 73.5111 121.736 73.5111 118.624C73.5111 115.469 72.6223 113.136 70.8445 111.624C69.0223 110.069 66.7556 109.291 64.0445 109.291H62.8445V100.624H63.7778C69.2445 100.624 73.5556 102.202 76.7112 105.358C79.8223 108.469 81.3778 112.891 81.3778 118.624ZM80.4445 93.4542H33.7778V63.4541H41.7778V84.6541H52.9111V65.3208H60.9111V84.6541H72.4445V63.0541H80.4445V93.4542Z" fill="white"/>
<path d="M211.957 210.81H273.705V249.582H211.957V311.33H169.954V249.582H107.847V210.81H169.954V148.703H211.957V210.81ZM388.341 189.988C416.104 189.988 437.763 198.125 453.32 214.4C468.398 230.675 475.937 250.898 475.937 275.071C475.937 301.637 467.082 323.057 449.371 339.332C431.66 355.607 408.684 363.744 380.443 363.744C354.356 363.744 332.457 356.684 314.746 342.563C297.514 328.682 287.941 309.535 286.026 285.123H332.337C334.012 297.329 339.158 307.022 347.774 314.202C356.629 321.143 367.519 324.613 380.443 324.613C395.042 324.613 406.77 320.066 415.625 310.971C424.72 301.637 429.267 289.67 429.267 275.071C429.267 260.472 424.72 248.625 415.625 239.53C406.77 230.196 395.042 225.529 380.443 225.529C358.903 225.529 343.945 234.145 335.568 251.377H291.052L314.746 102.392H462.654V143.318H352.8L341.671 206.861C355.552 195.612 371.109 189.988 388.341 189.988Z" fill="white"/>
<path d="M349.85 432.728L352.424 428.504H357.341L348.53 442.727V452H344.075V442.727L335.198 428.504H340.247L342.854 432.761C344.966 436.281 346.143 438.261 346.385 438.701C346.979 437.645 348.134 435.654 349.85 432.728ZM377.143 428.504V432.497H364.273V438.041H375.922V441.869H364.273V448.007H377.077V452H359.818V428.504H377.143ZM402.176 452H397.457L395.609 446.819H385.313L383.498 452H378.911L387.854 428.504H393.068L402.176 452ZM387.557 440.483L386.666 443.024H394.256L393.332 440.483C392.562 438.525 391.594 435.841 390.428 432.431C389.504 435.159 388.547 437.843 387.557 440.483ZM423.299 445.763L423.497 449.261C423.519 450.383 423.761 451.296 424.223 452H419.636C419.24 451.34 419.031 450.405 419.009 449.195L418.91 446.621C418.844 445.191 418.514 444.201 417.92 443.651C417.348 443.079 416.424 442.793 415.148 442.793H409.34V452H404.885V428.504H415.544C418.162 428.504 420.197 429.098 421.649 430.286C423.101 431.474 423.827 433.091 423.827 435.137C423.827 437.953 422.518 439.823 419.9 440.747C421.088 441.121 421.935 441.715 422.441 442.529C422.969 443.321 423.255 444.399 423.299 445.763ZM409.34 432.167V439.295H415.28C416.534 439.295 417.502 438.987 418.184 438.371C418.888 437.733 419.24 436.82 419.24 435.632C419.24 434.51 418.877 433.652 418.151 433.058C417.447 432.464 416.435 432.167 415.115 432.167H409.34ZM436.764 452.528C433.574 452.528 431.099 451.813 429.339 450.383C427.601 448.953 426.721 446.907 426.699 444.245H431.088C431.11 445.917 431.605 447.116 432.573 447.842C433.563 448.568 435.004 448.931 436.896 448.931C438.436 448.931 439.613 448.645 440.427 448.073C441.241 447.479 441.648 446.632 441.648 445.532C441.648 444.608 441.296 443.904 440.592 443.42C439.91 442.936 438.656 442.507 436.83 442.133L434.85 441.737C429.812 440.791 427.293 438.415 427.293 434.609C427.293 432.585 428.063 430.979 429.603 429.791C431.143 428.581 433.277 427.976 436.005 427.976C439.107 427.976 441.45 428.636 443.034 429.956C444.64 431.276 445.487 433.124 445.575 435.5H441.252C441.164 434.158 440.713 433.168 439.899 432.53C439.107 431.892 437.831 431.573 436.071 431.573C434.707 431.573 433.662 431.826 432.936 432.332C432.21 432.838 431.847 433.553 431.847 434.477C431.847 435.423 432.177 436.149 432.837 436.655C433.519 437.161 434.718 437.59 436.434 437.942L438.48 438.338C441.23 438.888 443.21 439.713 444.42 440.813C445.652 441.891 446.268 443.387 446.268 445.301C446.268 447.589 445.432 449.371 443.76 450.647C442.088 451.901 439.756 452.528 436.764 452.528Z" fill="white"/>
</g>
<defs>
<clipPath id="clip0_431_26">
<rect width="500" height="500" fill="white"/>
</clipPath>
</defs>
</svg>
