<svg width="500" height="500" viewBox="0 0 500 500" fill="none" xmlns="http://www.w3.org/2000/svg">
<g clip-path="url(#clip0_431_8)">
<path d="M500 0H0V500H500V0Z" fill="#528E76"/>
<path d="M80.4445 434.6H33.7778V404.6H41.7778V425.8H52.9111V406.467H60.9111V425.8H72.4445V404.2H80.4445V434.6ZM80.4445 400.619L56.9111 386.952L33.7778 400.486V390.486L50.6445 381.219V380.019L33.7778 370.752V360.752L56.9111 374.286L80.4445 360.619V370.619L63.1778 380.019V381.219L80.4445 390.619V400.619ZM80.4445 354.782H33.7778V335.582C33.7778 332.649 34.3778 330.071 35.5778 327.849C36.7334 325.582 38.3778 323.827 40.5111 322.582C42.6445 321.293 45.1778 320.649 48.1111 320.649H49.0445C51.9334 320.649 54.4667 321.316 56.6445 322.649C58.7778 323.938 60.4445 325.716 61.6445 327.982C62.8 330.204 63.3778 332.738 63.3778 335.582V345.982H80.4445V354.782ZM55.3778 345.982V336.449C55.3778 334.36 54.8 332.671 53.6445 331.382C52.4889 330.093 50.9111 329.449 48.9111 329.449H48.2445C46.2445 329.449 44.6667 330.093 43.5111 331.382C42.3556 332.671 41.7778 334.36 41.7778 336.449V345.982H55.3778ZM80.4445 314.548H33.7778V284.548H41.7778V305.748H52.9111V286.414H60.9111V305.748H72.4445V284.148H80.4445V314.548ZM80.4445 277.633H33.7778V257.367C33.7778 254.433 34.2889 251.878 35.3111 249.7C36.3334 247.522 37.7778 245.833 39.6445 244.633C41.5111 243.433 43.7111 242.833 46.2445 242.833H47.0445C49.8445 242.833 52.1111 243.5 53.8445 244.833C55.5778 246.167 56.8445 247.811 57.6445 249.767H58.8445C58.9334 247.989 59.5556 246.611 60.7112 245.633C61.8223 244.656 63.3111 244.167 65.1778 244.167H80.4445V252.967H66.4445C65.3778 252.967 64.5111 253.256 63.8445 253.833C63.1778 254.367 62.8445 255.278 62.8445 256.567V268.833H80.4445V277.633ZM54.8445 268.833V258.3C54.8445 256.211 54.2889 254.589 53.1778 253.433C52.0223 252.233 50.5111 251.633 48.6445 251.633H47.9778C46.1111 251.633 44.6223 252.211 43.5111 253.367C42.3556 254.522 41.7778 256.167 41.7778 258.3V268.833H54.8445ZM80.4445 235.511H33.7778V226.711H80.4445V235.511ZM80.4445 217.933H33.7778V187.933H41.7778V209.133H52.9111V189.8H60.9111V209.133H72.4445V187.533H80.4445V217.933ZM80.4445 181.019H33.7778V164.286L74.4445 155.019V153.819H33.7778V145.152H80.4445V161.886L39.7778 171.152V172.352H80.4445V181.019ZM81.3778 118.624C81.3778 124.402 79.7778 128.98 76.5778 132.358C73.3334 135.736 68.7112 137.424 62.7112 137.424H51.5111C45.5111 137.424 40.9111 135.736 37.7111 132.358C34.4667 128.98 32.8445 124.402 32.8445 118.624C32.8445 112.891 34.4223 108.469 37.5778 105.358C40.6889 102.202 44.9778 100.624 50.4445 100.624H50.8445V109.291H50.1778C47.4223 109.291 45.1556 110.069 43.3778 111.624C41.6 113.136 40.7111 115.469 40.7111 118.624C40.7111 121.736 41.6667 124.18 43.5778 125.958C45.4889 127.736 48.0889 128.624 51.3778 128.624H62.8445C66.0889 128.624 68.6889 127.736 70.6445 125.958C72.5556 124.18 73.5111 121.736 73.5111 118.624C73.5111 115.469 72.6223 113.136 70.8445 111.624C69.0223 110.069 66.7556 109.291 64.0445 109.291H62.8445V100.624H63.7778C69.2445 100.624 73.5556 102.202 76.7112 105.358C79.8223 108.469 81.3778 112.891 81.3778 118.624ZM80.4445 93.4542H33.7778V63.4541H41.7778V84.6541H52.9111V65.3208H60.9111V84.6541H72.4445V63.0541H80.4445V93.4542Z" fill="white"/>
<path d="M301.463 447H296.744L294.896 441.819H284.6L282.785 447H278.198L287.141 423.504H292.355L301.463 447ZM286.844 435.483L285.953 438.024H293.543L292.619 435.483C291.849 433.525 290.881 430.841 289.715 427.431C288.791 430.159 287.834 432.843 286.844 435.483ZM302.192 423.504H311.168C314.93 423.504 317.834 424.549 319.88 426.639C321.926 428.751 322.949 431.622 322.949 435.252C322.949 438.882 321.926 441.742 319.88 443.832C317.834 445.944 314.93 447 311.168 447H302.192V423.504ZM306.647 443.172H311.102C313.412 443.172 315.194 442.501 316.448 441.159C317.702 439.795 318.329 437.826 318.329 435.252C318.329 432.678 317.702 430.72 316.448 429.378C315.194 428.014 313.412 427.332 311.102 427.332H306.647V443.172ZM334.993 435.648L339.151 423.504H343.771L335.356 447H330.142L321.529 423.504H326.281L330.538 435.648C331.528 438.64 332.276 441.082 332.782 442.974C333.354 440.796 334.091 438.354 334.993 435.648ZM362.656 447H357.937L356.089 441.819H345.793L343.978 447H339.391L348.334 423.504H353.548L362.656 447ZM348.037 435.483L347.146 438.024H354.736L353.812 435.483C353.042 433.525 352.074 430.841 350.908 427.431C349.984 430.159 349.027 432.843 348.037 435.483ZM378.928 429.642V423.504H383.218V447H378.268L371.734 436.539C369.952 433.745 368.555 431.391 367.543 429.477C367.631 431.941 367.675 435.736 367.675 440.862V447H363.385V423.504H368.335L374.902 433.965C376.86 437.133 378.246 439.487 379.06 441.027C378.972 437.749 378.928 433.954 378.928 429.642ZM396.476 447.528C393.088 447.528 390.349 446.417 388.259 444.195C386.147 441.973 385.091 438.992 385.091 435.252C385.091 431.49 386.136 428.498 388.226 426.276C390.294 424.076 393.044 422.976 396.476 422.976C399.226 422.976 401.569 423.713 403.505 425.187C405.441 426.661 406.651 428.795 407.135 431.589H402.614C402.218 430.049 401.481 428.883 400.403 428.091C399.347 427.277 398.038 426.87 396.476 426.87C394.386 426.87 392.736 427.618 391.526 429.114C390.338 430.588 389.744 432.634 389.744 435.252C389.744 437.892 390.338 439.949 391.526 441.423C392.714 442.897 394.364 443.634 396.476 443.634C398.104 443.634 399.501 443.15 400.667 442.182C401.833 441.214 402.537 439.872 402.779 438.156H407.234C406.948 441.148 405.782 443.458 403.736 445.086C401.712 446.714 399.292 447.528 396.476 447.528ZM426.328 423.504V427.497H413.458V433.041H425.107V436.869H413.458V443.007H426.262V447H409.003V423.504H426.328ZM428.09 423.504H437.066C440.828 423.504 443.732 424.549 445.778 426.639C447.824 428.751 448.847 431.622 448.847 435.252C448.847 438.882 447.824 441.742 445.778 443.832C443.732 445.944 440.828 447 437.066 447H428.09V423.504ZM432.545 443.172H437C439.31 443.172 441.092 442.501 442.346 441.159C443.6 439.795 444.227 437.826 444.227 435.252C444.227 432.678 443.6 430.72 442.346 429.378C441.092 428.014 439.31 427.332 437 427.332H432.545V443.172Z" fill="white"/>
<path d="M447.944 392H372.048L354.24 339.424H228.736L211.352 392H138L249.088 90.112H334.312L447.944 392ZM266.048 227.912L248.664 279.64H333.888L316.504 227.912C311.133 212.648 302.653 187.208 291.064 151.592C276.083 197.667 267.744 223.107 266.048 227.912Z" fill="white"/>
</g>
<defs>
<clipPath id="clip0_431_8">
<rect width="500" height="500" fill="white"/>
</clipPath>
</defs>
</svg>
