<svg width="500" height="500" viewBox="0 0 500 500" fill="none" xmlns="http://www.w3.org/2000/svg">
<g clip-path="url(#clip0_431_14)">
<path d="M500 0H0V500H500V0Z" fill="#9BCB4D"/>
<path d="M80.4445 434.6H33.7778V404.6H41.7778V425.8H52.9111V406.467H60.9111V425.8H72.4445V404.2H80.4445V434.6ZM80.4445 400.619L56.9111 386.952L33.7778 400.486V390.486L50.6445 381.219V380.019L33.7778 370.752V360.752L56.9111 374.286L80.4445 360.619V370.619L63.1778 380.019V381.219L80.4445 390.619V400.619ZM80.4445 354.782H33.7778V335.582C33.7778 332.649 34.3778 330.071 35.5778 327.849C36.7334 325.582 38.3778 323.827 40.5111 322.582C42.6445 321.293 45.1778 320.649 48.1111 320.649H49.0445C51.9334 320.649 54.4667 321.316 56.6445 322.649C58.7778 323.938 60.4445 325.716 61.6445 327.982C62.8 330.204 63.3778 332.738 63.3778 335.582V345.982H80.4445V354.782ZM55.3778 345.982V336.449C55.3778 334.36 54.8 332.671 53.6445 331.382C52.4889 330.093 50.9111 329.449 48.9111 329.449H48.2445C46.2445 329.449 44.6667 330.093 43.5111 331.382C42.3556 332.671 41.7778 334.36 41.7778 336.449V345.982H55.3778ZM80.4445 314.548H33.7778V284.548H41.7778V305.748H52.9111V286.414H60.9111V305.748H72.4445V284.148H80.4445V314.548ZM80.4445 277.633H33.7778V257.367C33.7778 254.433 34.2889 251.878 35.3111 249.7C36.3334 247.522 37.7778 245.833 39.6445 244.633C41.5111 243.433 43.7111 242.833 46.2445 242.833H47.0445C49.8445 242.833 52.1111 243.5 53.8445 244.833C55.5778 246.167 56.8445 247.811 57.6445 249.767H58.8445C58.9334 247.989 59.5556 246.611 60.7112 245.633C61.8223 244.656 63.3111 244.167 65.1778 244.167H80.4445V252.967H66.4445C65.3778 252.967 64.5111 253.256 63.8445 253.833C63.1778 254.367 62.8445 255.278 62.8445 256.567V268.833H80.4445V277.633ZM54.8445 268.833V258.3C54.8445 256.211 54.2889 254.589 53.1778 253.433C52.0223 252.233 50.5111 251.633 48.6445 251.633H47.9778C46.1111 251.633 44.6223 252.211 43.5111 253.367C42.3556 254.522 41.7778 256.167 41.7778 258.3V268.833H54.8445ZM80.4445 235.511H33.7778V226.711H80.4445V235.511ZM80.4445 217.933H33.7778V187.933H41.7778V209.133H52.9111V189.8H60.9111V209.133H72.4445V187.533H80.4445V217.933ZM80.4445 181.019H33.7778V164.286L74.4445 155.019V153.819H33.7778V145.152H80.4445V161.886L39.7778 171.152V172.352H80.4445V181.019ZM81.3778 118.624C81.3778 124.402 79.7778 128.98 76.5778 132.358C73.3334 135.736 68.7112 137.424 62.7112 137.424H51.5111C45.5111 137.424 40.9111 135.736 37.7111 132.358C34.4667 128.98 32.8445 124.402 32.8445 118.624C32.8445 112.891 34.4223 108.469 37.5778 105.358C40.6889 102.202 44.9778 100.624 50.4445 100.624H50.8445V109.291H50.1778C47.4223 109.291 45.1556 110.069 43.3778 111.624C41.6 113.136 40.7111 115.469 40.7111 118.624C40.7111 121.736 41.6667 124.18 43.5778 125.958C45.4889 127.736 48.0889 128.624 51.3778 128.624H62.8445C66.0889 128.624 68.6889 127.736 70.6445 125.958C72.5556 124.18 73.5111 121.736 73.5111 118.624C73.5111 115.469 72.6223 113.136 70.8445 111.624C69.0223 110.069 66.7556 109.291 64.0445 109.291H62.8445V100.624H63.7778C69.2445 100.624 73.5556 102.202 76.7112 105.358C79.8223 108.469 81.3778 112.891 81.3778 118.624ZM80.4445 93.4542H33.7778V63.4541H41.7778V84.6541H52.9111V65.3208H60.9111V84.6541H72.4445V63.0541H80.4445V93.4542Z" fill="white"/>
<path d="M296.513 423.504V427.497H284.369V433.041H295.424V436.869H284.369V447H279.914V423.504H296.513ZM316.352 440.763L316.55 444.261C316.572 445.383 316.814 446.296 317.276 447H312.689C312.293 446.34 312.084 445.405 312.062 444.195L311.963 441.621C311.897 440.191 311.567 439.201 310.973 438.651C310.401 438.079 309.477 437.793 308.201 437.793H302.393V447H297.938V423.504H308.597C311.215 423.504 313.25 424.098 314.702 425.286C316.154 426.474 316.88 428.091 316.88 430.137C316.88 432.953 315.571 434.823 312.953 435.747C314.141 436.121 314.988 436.715 315.494 437.529C316.022 438.321 316.308 439.399 316.352 440.763ZM302.393 427.167V434.295H308.333C309.587 434.295 310.555 433.987 311.237 433.371C311.941 432.733 312.293 431.82 312.293 430.632C312.293 429.51 311.93 428.652 311.204 428.058C310.5 427.464 309.488 427.167 308.168 427.167H302.393ZM336.219 423.504V427.497H323.349V433.041H334.998V436.869H323.349V443.007H336.153V447H318.894V423.504H336.219ZM346.892 447.528C343.702 447.528 341.227 446.813 339.467 445.383C337.729 443.953 336.849 441.907 336.827 439.245H341.216C341.238 440.917 341.733 442.116 342.701 442.842C343.691 443.568 345.132 443.931 347.024 443.931C348.564 443.931 349.741 443.645 350.555 443.073C351.369 442.479 351.776 441.632 351.776 440.532C351.776 439.608 351.424 438.904 350.72 438.42C350.038 437.936 348.784 437.507 346.958 437.133L344.978 436.737C339.94 435.791 337.421 433.415 337.421 429.609C337.421 427.585 338.191 425.979 339.731 424.791C341.271 423.581 343.405 422.976 346.133 422.976C349.235 422.976 351.578 423.636 353.162 424.956C354.768 426.276 355.615 428.124 355.703 430.5H351.38C351.292 429.158 350.841 428.168 350.027 427.53C349.235 426.892 347.959 426.573 346.199 426.573C344.835 426.573 343.79 426.826 343.064 427.332C342.338 427.838 341.975 428.553 341.975 429.477C341.975 430.423 342.305 431.149 342.965 431.655C343.647 432.161 344.846 432.59 346.562 432.942L348.608 433.338C351.358 433.888 353.338 434.713 354.548 435.813C355.78 436.891 356.396 438.387 356.396 440.301C356.396 442.589 355.56 444.371 353.888 445.647C352.216 446.901 349.884 447.528 346.892 447.528ZM373.349 432.942V423.504H377.804V447H373.349V436.968H362.426V447H357.971V423.504H362.426V432.942H373.349ZM397.96 423.504V427.497H385.09V433.041H396.739V436.869H385.09V443.007H397.894V447H380.635V423.504H397.96ZM418.136 440.763L418.334 444.261C418.356 445.383 418.598 446.296 419.06 447H414.473C414.077 446.34 413.868 445.405 413.846 444.195L413.747 441.621C413.681 440.191 413.351 439.201 412.757 438.651C412.185 438.079 411.261 437.793 409.985 437.793H404.177V447H399.722V423.504H410.381C412.999 423.504 415.034 424.098 416.486 425.286C417.938 426.474 418.664 428.091 418.664 430.137C418.664 432.953 417.355 434.823 414.737 435.747C415.925 436.121 416.772 436.715 417.278 437.529C417.806 438.321 418.092 439.399 418.136 440.763ZM404.177 427.167V434.295H410.117C411.371 434.295 412.339 433.987 413.021 433.371C413.725 432.733 414.077 431.82 414.077 430.632C414.077 429.51 413.714 428.652 412.988 428.058C412.284 427.464 411.272 427.167 409.952 427.167H404.177Z" fill="white"/>
<path d="M431.648 90.112V154.136H281.552V208.832H420.2V269.464H281.552V392H209.896V90.112H431.648Z" fill="white"/>
</g>
<defs>
<clipPath id="clip0_431_14">
<rect width="500" height="500" fill="white"/>
</clipPath>
</defs>
</svg>
