<svg width="500" height="500" viewBox="0 0 500 500" fill="none" xmlns="http://www.w3.org/2000/svg">
<g clip-path="url(#clip0_431_2)">
<path d="M500 0H0V500H500V0Z" fill="#6D6EA4"/>
<path d="M80.4445 434.6H33.7778V404.6H41.7778V425.8H52.9111V406.467H60.9111V425.8H72.4445V404.2H80.4445V434.6ZM80.4445 400.619L56.9111 386.952L33.7778 400.486V390.486L50.6445 381.219V380.019L33.7778 370.752V360.752L56.9111 374.286L80.4445 360.619V370.619L63.1778 380.019V381.219L80.4445 390.619V400.619ZM80.4445 354.782H33.7778V335.582C33.7778 332.649 34.3778 330.071 35.5778 327.849C36.7334 325.582 38.3778 323.827 40.5111 322.582C42.6445 321.293 45.1778 320.649 48.1111 320.649H49.0445C51.9334 320.649 54.4667 321.316 56.6445 322.649C58.7778 323.938 60.4445 325.716 61.6445 327.982C62.8 330.204 63.3778 332.738 63.3778 335.582V345.982H80.4445V354.782ZM55.3778 345.982V336.449C55.3778 334.36 54.8 332.671 53.6445 331.382C52.4889 330.093 50.9111 329.449 48.9111 329.449H48.2445C46.2445 329.449 44.6667 330.093 43.5111 331.382C42.3556 332.671 41.7778 334.36 41.7778 336.449V345.982H55.3778ZM80.4445 314.548H33.7778V284.548H41.7778V305.748H52.9111V286.414H60.9111V305.748H72.4445V284.148H80.4445V314.548ZM80.4445 277.633H33.7778V257.367C33.7778 254.433 34.2889 251.878 35.3111 249.7C36.3334 247.522 37.7778 245.833 39.6445 244.633C41.5111 243.433 43.7111 242.833 46.2445 242.833H47.0445C49.8445 242.833 52.1111 243.5 53.8445 244.833C55.5778 246.167 56.8445 247.811 57.6445 249.767H58.8445C58.9334 247.989 59.5556 246.611 60.7112 245.633C61.8223 244.656 63.3111 244.167 65.1778 244.167H80.4445V252.967H66.4445C65.3778 252.967 64.5111 253.256 63.8445 253.833C63.1778 254.367 62.8445 255.278 62.8445 256.567V268.833H80.4445V277.633ZM54.8445 268.833V258.3C54.8445 256.211 54.2889 254.589 53.1778 253.433C52.0223 252.233 50.5111 251.633 48.6445 251.633H47.9778C46.1111 251.633 44.6223 252.211 43.5111 253.367C42.3556 254.522 41.7778 256.167 41.7778 258.3V268.833H54.8445ZM80.4445 235.511H33.7778V226.711H80.4445V235.511ZM80.4445 217.933H33.7778V187.933H41.7778V209.133H52.9111V189.8H60.9111V209.133H72.4445V187.533H80.4445V217.933ZM80.4445 181.019H33.7778V164.286L74.4445 155.019V153.819H33.7778V145.152H80.4445V161.886L39.7778 171.152V172.352H80.4445V181.019ZM81.3778 118.624C81.3778 124.402 79.7778 128.98 76.5778 132.358C73.3334 135.736 68.7112 137.424 62.7112 137.424H51.5111C45.5111 137.424 40.9111 135.736 37.7111 132.358C34.4667 128.98 32.8445 124.402 32.8445 118.624C32.8445 112.891 34.4223 108.469 37.5778 105.358C40.6889 102.202 44.9778 100.624 50.4445 100.624H50.8445V109.291H50.1778C47.4223 109.291 45.1556 110.069 43.3778 111.624C41.6 113.136 40.7111 115.469 40.7111 118.624C40.7111 121.736 41.6667 124.18 43.5778 125.958C45.4889 127.736 48.0889 128.624 51.3778 128.624H62.8445C66.0889 128.624 68.6889 127.736 70.6445 125.958C72.5556 124.18 73.5111 121.736 73.5111 118.624C73.5111 115.469 72.6223 113.136 70.8445 111.624C69.0223 110.069 66.7556 109.291 64.0445 109.291H62.8445V100.624H63.7778C69.2445 100.624 73.5556 102.202 76.7112 105.358C79.8223 108.469 81.3778 112.891 81.3778 118.624ZM80.4445 93.4542H33.7778V63.4541H41.7778V84.6541H52.9111V65.3208H60.9111V84.6541H72.4445V63.0541H80.4445V93.4542Z" fill="white"/>
<path d="M227.369 447H222.914V423.504H227.369V447ZM245.781 429.642V423.504H250.071V447H245.121L238.587 436.539C236.805 433.745 235.408 431.391 234.396 429.477C234.484 431.941 234.528 435.736 234.528 440.862V447H230.238V423.504H235.188L241.755 433.965C243.713 437.133 245.099 439.487 245.913 441.027C245.825 437.749 245.781 433.954 245.781 429.642ZM251.356 423.504H270.892V427.497H263.368V447H258.88V427.497H251.356V423.504ZM289.476 423.504V427.497H276.606V433.041H288.255V436.869H276.606V443.007H289.41V447H272.151V423.504H289.476ZM309.652 440.763L309.85 444.261C309.872 445.383 310.114 446.296 310.576 447H305.989C305.593 446.34 305.384 445.405 305.362 444.195L305.263 441.621C305.197 440.191 304.867 439.201 304.273 438.651C303.701 438.079 302.777 437.793 301.501 437.793H295.693V447H291.238V423.504H301.897C304.515 423.504 306.55 424.098 308.002 425.286C309.454 426.474 310.18 428.091 310.18 430.137C310.18 432.953 308.871 434.823 306.253 435.747C307.441 436.121 308.288 436.715 308.794 437.529C309.322 438.321 309.608 439.399 309.652 440.763ZM295.693 427.167V434.295H301.633C302.887 434.295 303.855 433.987 304.537 433.371C305.241 432.733 305.593 431.82 305.593 430.632C305.593 429.51 305.23 428.652 304.504 428.058C303.8 427.464 302.788 427.167 301.468 427.167H295.693ZM326.813 434.691L330.74 423.504H337.208V447H332.951V439.839C332.951 435.439 332.995 431.556 333.083 428.19C332.599 429.84 332.005 431.644 331.301 433.602L326.549 447H322.886L318.101 433.602C317.265 431.16 316.682 429.378 316.352 428.256C316.44 431.6 316.484 435.461 316.484 439.839V447H312.194V423.504H318.662L322.721 434.922C322.985 435.692 323.656 437.815 324.734 441.291C325.438 438.849 326.131 436.649 326.813 434.691ZM357.404 423.504V427.497H344.534V433.041H356.183V436.869H344.534V443.007H357.338V447H340.079V423.504H357.404ZM359.167 423.504H368.143C371.905 423.504 374.809 424.549 376.855 426.639C378.901 428.751 379.924 431.622 379.924 435.252C379.924 438.882 378.901 441.742 376.855 443.832C374.809 445.944 371.905 447 368.143 447H359.167V423.504ZM363.622 443.172H368.077C370.387 443.172 372.169 442.501 373.423 441.159C374.677 439.795 375.304 437.826 375.304 435.252C375.304 432.678 374.677 430.72 373.423 429.378C372.169 428.014 370.387 427.332 368.077 427.332H363.622V443.172ZM386.254 447H381.799V423.504H386.254V447ZM410.253 447H405.534L403.686 441.819H393.39L391.575 447H386.988L395.931 423.504H401.145L410.253 447ZM395.634 435.483L394.743 438.024H402.333L401.409 435.483C400.639 433.525 399.671 430.841 398.505 427.431C397.581 430.159 396.624 432.843 395.634 435.483ZM406.019 423.504H425.555V427.497H418.031V447H413.543V427.497H406.019V423.504ZM444.139 423.504V427.497H431.269V433.041H442.918V436.869H431.269V443.007H444.073V447H426.814V423.504H444.139Z" fill="white"/>
<path d="M361.552 392H289.896V90.112H361.552V392Z" fill="white"/>
</g>
<defs>
<clipPath id="clip0_431_2">
<rect width="500" height="500" fill="white"/>
</clipPath>
</defs>
</svg>
