<svg width="500" height="500" viewBox="0 0 500 500" fill="none" xmlns="http://www.w3.org/2000/svg">
<g clip-path="url(#clip0_430_2)">
<path d="M500 0H0V500H500V0Z" fill="#6D8EA4"/>
<path d="M80.4445 434.6H33.7778V404.6H41.7778V425.8H52.9111V406.467H60.9111V425.8H72.4445V404.2H80.4445V434.6ZM80.4445 400.619L56.9111 386.952L33.7778 400.486V390.486L50.6445 381.219V380.019L33.7778 370.752V360.752L56.9111 374.286L80.4445 360.619V370.619L63.1778 380.019V381.219L80.4445 390.619V400.619ZM80.4445 354.782H33.7778V335.582C33.7778 332.649 34.3778 330.071 35.5778 327.849C36.7334 325.582 38.3778 323.827 40.5111 322.582C42.6445 321.293 45.1778 320.649 48.1111 320.649H49.0445C51.9334 320.649 54.4667 321.316 56.6445 322.649C58.7778 323.938 60.4445 325.716 61.6445 327.982C62.8 330.204 63.3778 332.738 63.3778 335.582V345.982H80.4445V354.782ZM55.3778 345.982V336.449C55.3778 334.36 54.8 332.671 53.6445 331.382C52.4889 330.093 50.9111 329.449 48.9111 329.449H48.2445C46.2445 329.449 44.6667 330.093 43.5111 331.382C42.3556 332.671 41.7778 334.36 41.7778 336.449V345.982H55.3778ZM80.4445 314.548H33.7778V284.548H41.7778V305.748H52.9111V286.414H60.9111V305.748H72.4445V284.148H80.4445V314.548ZM80.4445 277.633H33.7778V257.367C33.7778 254.433 34.2889 251.878 35.3111 249.7C36.3334 247.522 37.7778 245.833 39.6445 244.633C41.5111 243.433 43.7112 242.833 46.2445 242.833H47.0445C49.8445 242.833 52.1111 243.5 53.8445 244.833C55.5778 246.167 56.8445 247.811 57.6445 249.767H58.8445C58.9334 247.989 59.5556 246.611 60.7112 245.633C61.8223 244.656 63.3111 244.167 65.1778 244.167H80.4445V252.967H66.4445C65.3778 252.967 64.5111 253.256 63.8445 253.833C63.1778 254.367 62.8445 255.278 62.8445 256.567V268.833H80.4445V277.633ZM54.8445 268.833V258.3C54.8445 256.211 54.2889 254.589 53.1778 253.433C52.0223 252.233 50.5111 251.633 48.6445 251.633H47.9778C46.1111 251.633 44.6223 252.211 43.5111 253.367C42.3556 254.522 41.7778 256.167 41.7778 258.3V268.833H54.8445ZM80.4445 235.511H33.7778V226.711H80.4445V235.511ZM80.4445 217.933H33.7778V187.933H41.7778V209.133H52.9111V189.8H60.9111V209.133H72.4445V187.533H80.4445V217.933ZM80.4445 181.019H33.7778V164.286L74.4445 155.019V153.819H33.7778V145.152H80.4445V161.886L39.7778 171.152V172.352H80.4445V181.019ZM81.3778 118.624C81.3778 124.402 79.7778 128.98 76.5778 132.358C73.3334 135.736 68.7112 137.424 62.7112 137.424H51.5111C45.5111 137.424 40.9111 135.736 37.7111 132.358C34.4667 128.98 32.8445 124.402 32.8445 118.624C32.8445 112.891 34.4223 108.469 37.5778 105.358C40.6889 102.202 44.9778 100.624 50.4445 100.624H50.8445V109.291H50.1778C47.4223 109.291 45.1556 110.069 43.3778 111.624C41.6 113.136 40.7111 115.469 40.7111 118.624C40.7111 121.736 41.6667 124.18 43.5778 125.958C45.4889 127.736 48.0889 128.624 51.3778 128.624H62.8445C66.0889 128.624 68.6889 127.736 70.6445 125.958C72.5556 124.18 73.5111 121.736 73.5111 118.624C73.5111 115.469 72.6223 113.136 70.8445 111.624C69.0223 110.069 66.7556 109.291 64.0445 109.291H62.8445V100.624H63.7778C69.2445 100.624 73.5556 102.202 76.7112 105.358C79.8223 108.469 81.3778 112.891 81.3778 118.624ZM80.4445 93.4542H33.7778V63.4541H41.7778V84.6541H52.9111V65.3208H60.9111V84.6541H72.4445V63.0541H80.4445V93.4542Z" fill="white"/>
<path d="M431.24 317.952L433.36 360.352C433.643 373.92 436.469 384.803 441.84 393H368.064C363.541 384.52 361.139 373.496 360.856 359.928L359.584 326.008C359.019 309.331 355.203 297.883 348.136 291.664C341.352 285.163 330.328 281.912 315.064 281.912H256.552V393H184.896V91.112H327.784C363.117 91.112 390.112 99.0267 408.768 114.856C427.707 130.403 437.176 151.603 437.176 178.456C437.176 213.224 420.923 237.109 388.416 250.112C403.963 255.2 414.704 262.973 420.64 273.432C426.859 283.891 430.392 298.731 431.24 317.952ZM256.552 148.352V228.064H319.728C333.579 228.064 344.32 224.672 351.952 217.888C359.584 210.821 363.4 200.787 363.4 187.784C363.4 161.496 348.419 148.352 318.456 148.352H256.552Z" fill="white"/>
<path d="M346.328 445.763L346.526 449.261C346.548 450.383 346.79 451.296 347.252 452H342.665C342.269 451.34 342.06 450.405 342.038 449.195L341.939 446.621C341.873 445.191 341.543 444.201 340.949 443.651C340.377 443.079 339.453 442.793 338.177 442.793H332.369V452H327.914V428.504H338.573C341.191 428.504 343.226 429.098 344.678 430.286C346.13 431.474 346.856 433.091 346.856 435.137C346.856 437.953 345.547 439.823 342.929 440.747C344.117 441.121 344.964 441.715 345.47 442.529C345.998 443.321 346.284 444.399 346.328 445.763ZM332.369 432.167V439.295H338.309C339.563 439.295 340.531 438.987 341.213 438.371C341.917 437.733 342.269 436.82 342.269 435.632C342.269 434.51 341.906 433.652 341.18 433.058C340.476 432.464 339.464 432.167 338.144 432.167H332.369ZM368.142 449.162C365.986 451.406 363.148 452.528 359.628 452.528C356.108 452.528 353.27 451.406 351.114 449.162C348.958 446.896 347.88 443.926 347.88 440.252C347.88 436.578 348.958 433.608 351.114 431.342C353.27 429.098 356.108 427.976 359.628 427.976C363.148 427.976 365.986 429.098 368.142 431.342C370.276 433.564 371.343 436.534 371.343 440.252C371.343 443.97 370.276 446.94 368.142 449.162ZM352.533 440.252C352.533 442.826 353.182 444.861 354.48 446.357C355.778 447.853 357.494 448.601 359.628 448.601C361.784 448.601 363.511 447.853 364.809 446.357C366.085 444.883 366.723 442.848 366.723 440.252C366.723 437.656 366.085 435.621 364.809 434.147C363.511 432.651 361.784 431.903 359.628 431.903C357.494 431.903 355.778 432.651 354.48 434.147C353.182 435.643 352.533 437.678 352.533 440.252ZM392.482 449.162C390.326 451.406 387.488 452.528 383.968 452.528C380.448 452.528 377.61 451.406 375.454 449.162C373.298 446.896 372.22 443.926 372.22 440.252C372.22 436.578 373.298 433.608 375.454 431.342C377.61 429.098 380.448 427.976 383.968 427.976C387.488 427.976 390.326 429.098 392.482 431.342C394.616 433.564 395.683 436.534 395.683 440.252C395.683 443.97 394.616 446.94 392.482 449.162ZM376.873 440.252C376.873 442.826 377.522 444.861 378.82 446.357C380.118 447.853 381.834 448.601 383.968 448.601C386.124 448.601 387.851 447.853 389.149 446.357C390.425 444.883 391.063 442.848 391.063 440.252C391.063 437.656 390.425 435.621 389.149 434.147C387.851 432.651 386.124 431.903 383.968 431.903C381.834 431.903 380.118 432.651 378.82 434.147C377.522 435.643 376.873 437.678 376.873 440.252ZM412.994 428.504H418.538L408.869 438.074L418.538 452H413.225L405.701 441.044L402.005 444.641V452H397.55V428.504H402.005V439.592L412.994 428.504ZM423.767 452H419.312V428.504H423.767V452ZM443.962 428.504V432.497H431.092V438.041H442.741V441.869H431.092V448.007H443.896V452H426.637V428.504H443.962Z" fill="white"/>
</g>
<defs>
<clipPath id="clip0_430_2">
<rect width="500" height="500" fill="white"/>
</clipPath>
</defs>
</svg>
