<svg width="4500" height="4500" viewBox="0 0 4500 4500" fill="none" xmlns="http://www.w3.org/2000/svg">
<rect width="4500" height="4500" fill="#BBBEA0"/>
<path d="M724 3911.4L304 3911.4L304 3641.4L376 3641.4L376 3832.2L476.2 3832.2L476.2 3658.2L548.2 3658.2L548.2 3832.2L652 3832.2L652 3637.8L724 3637.8L724 3911.4ZM724 3605.57L512.2 3482.57L304 3604.37L304 3514.37L455.8 3430.97L455.8 3420.17L304 3336.77L304 3246.77L512.2 3368.57L724 3245.57L724 3335.57L568.6 3420.17L568.6 3430.97L724 3515.57L724 3605.57ZM724 3193.04L304 3193.04L304 3020.24C304 2993.84 309.4 2970.64 320.2 2950.64C330.6 2930.24 345.4 2914.44 364.6 2903.24C383.8 2891.64 406.6 2885.84 433 2885.84L441.4 2885.84C467.4 2885.84 490.2 2891.84 509.8 2903.84C529 2915.44 544 2931.44 554.8 2951.84C565.2 2971.84 570.4 2994.64 570.4 3020.24L570.4 3113.84L724 3113.84L724 3193.04ZM498.4 3113.84L498.4 3028.04C498.4 3009.24 493.2 2994.04 482.8 2982.44C472.4 2970.84 458.2 2965.04 440.2 2965.04L434.2 2965.04C416.2 2965.04 402 2970.84 391.6 2982.44C381.2 2994.04 376 3009.24 376 3028.04L376 3113.84L498.4 3113.84ZM724 2830.93L304 2830.93L304 2560.93L376 2560.93L376 2751.73L476.2 2751.73L476.2 2577.73L548.2 2577.73L548.2 2751.73L652 2751.73L652 2557.33L724 2557.33L724 2830.93ZM724 2498.7L304 2498.7L304 2316.3C304 2289.9 308.6 2266.9 317.8 2247.3C327 2227.7 340 2212.5 356.8 2201.7C373.6 2190.9 393.4 2185.5 416.2 2185.5L423.4 2185.5C448.6 2185.5 469 2191.5 484.6 2203.5C500.2 2215.5 511.6 2230.3 518.8 2247.9L529.6 2247.9C530.4 2231.9 536 2219.5 546.4 2210.7C556.4 2201.9 569.8 2197.5 586.6 2197.5L724 2197.5L724 2276.7L598 2276.7C588.4 2276.7 580.6 2279.3 574.6 2284.5C568.6 2289.3 565.6 2297.5 565.6 2309.1L565.6 2419.5L724 2419.5L724 2498.7ZM493.6 2419.5L493.6 2324.7C493.6 2305.9 488.6 2291.3 478.6 2280.9C468.2 2270.1 454.6 2264.7 437.8 2264.7L431.8 2264.7C415 2264.7 401.6 2269.9 391.6 2280.3C381.2 2290.7 376 2305.5 376 2324.7L376 2419.5L493.6 2419.5ZM724 2119.6L304 2119.6L304 2040.4L724 2040.4L724 2119.6ZM724 1961.4L304 1961.4L304 1691.4L376 1691.4L376 1882.2L476.2 1882.2L476.2 1708.2L548.2 1708.2L548.2 1882.2L652 1882.2L652 1687.8L724 1687.8L724 1961.4ZM724 1629.17L304 1629.17L304 1478.57L670 1395.17L670 1384.37L304 1384.37L304 1306.37L724 1306.37L724 1456.97L358 1540.37L358 1551.17L724 1551.17L724 1629.17ZM732.4 1067.62C732.4 1119.62 718 1160.82 689.2 1191.22C660 1221.62 618.4 1236.82 564.4 1236.82L463.6 1236.82C409.6 1236.82 368.2 1221.62 339.4 1191.22C310.2 1160.82 295.6 1119.62 295.6 1067.62C295.6 1016.02 309.8 976.22 338.2 948.22C366.2 919.82 404.8 905.62 454 905.62L457.6 905.62L457.6 983.62L451.6 983.62C426.8 983.62 406.4 990.62 390.4 1004.62C374.4 1018.22 366.4 1039.22 366.4 1067.62C366.4 1095.62 375 1117.62 392.2 1133.62C409.4 1149.62 432.8 1157.62 462.4 1157.62L565.6 1157.62C594.8 1157.62 618.2 1149.62 635.8 1133.62C653 1117.62 661.6 1095.62 661.6 1067.62C661.6 1039.22 653.6 1018.22 637.6 1004.62C621.2 990.62 600.8 983.62 576.4 983.62L565.6 983.62L565.6 905.62L574 905.62C623.2 905.62 662 919.82 690.4 948.22C718.4 976.22 732.4 1016.02 732.4 1067.62ZM724 841.088L304 841.088L304 571.087L376 571.087L376 761.887L476.2 761.887L476.2 587.887L548.2 587.887L548.2 761.887L652 761.887L652 567.487L724 567.487L724 841.088Z" fill="white"/>
<path d="M3103.8 3581.8C2908.93 3581.8 2736.27 3547.27 2585.8 3478.2C2435.33 3409.13 2316.93 3310.47 2230.6 3182.2C2146.73 3051.47 2104.8 2897.3 2104.8 2719.7V2653.1H2578.4V2704.9C2578.4 2843.03 2626.5 2954.03 2722.7 3037.9C2818.9 3119.3 2945.93 3160 3103.8 3160C3264.13 3160 3387.47 3121.77 3473.8 3045.3C3562.6 2968.83 3607 2872.63 3607 2756.7V2719.7C3607 2640.77 3587.27 2576.63 3547.8 2527.3C3508.33 2477.97 3455.3 2442.2 3388.7 2420C3322.1 2395.33 3246.87 2383 3163 2383H2645V1865L3481.2 1421V1361.8H2171.4V940H4006.6V1569L3225.9 1983.4V2042.6H3362.8C3478.73 2042.6 3590.97 2066.03 3699.5 2112.9C3810.5 2159.77 3901.77 2232.53 3973.3 2331.2C4044.83 2427.4 4080.6 2553.2 4080.6 2708.6V2753C4080.6 2920.73 4039.9 3067.5 3958.5 3193.3C3877.1 3316.63 3762.4 3412.83 3614.4 3481.9C3468.87 3548.5 3298.67 3581.8 3103.8 3581.8Z" fill="white"/>
<path d="M1477 2793V2337H1027V1995H1477V1539H1831V1995H2281V2337H1831V2793H1477Z" fill="white"/>
<path d="M3262.8 4090V4017.7L3191.4 3880H3235.5L3279.9 3970H3285.3L3329.7 3880H3373.8L3302.4 4017.7V4090H3262.8ZM3396.01 4090V3880H3531.01V3916H3435.61V3966.1H3522.61V4002.1H3435.61V4054H3532.81V4090H3396.01ZM3547.72 4090L3602.92 3880H3671.92L3727.12 4090H3686.32L3674.92 4043.8H3599.92L3588.52 4090H3547.72ZM3609.22 4007.2H3665.62L3640.12 3904.9H3634.72L3609.22 4007.2ZM3752.26 4090V3880H3843.46C3856.66 3880 3868.16 3882.3 3877.96 3886.9C3887.76 3891.5 3895.36 3898 3900.76 3906.4C3906.16 3914.8 3908.86 3924.7 3908.86 3936.1V3939.7C3908.86 3952.3 3905.86 3962.5 3899.86 3970.3C3893.86 3978.1 3886.46 3983.8 3877.66 3987.4V3992.8C3885.66 3993.2 3891.86 3996 3896.26 4001.2C3900.66 4006.2 3902.86 4012.9 3902.86 4021.3V4090H3863.26V4027C3863.26 4022.2 3861.96 4018.3 3859.36 4015.3C3856.96 4012.3 3852.86 4010.8 3847.06 4010.8H3791.86V4090H3752.26ZM3791.86 3974.8H3839.26C3848.66 3974.8 3855.96 3972.3 3861.16 3967.3C3866.56 3962.1 3869.26 3955.3 3869.26 3946.9V3943.9C3869.26 3935.5 3866.66 3928.8 3861.46 3923.8C3856.26 3918.6 3848.86 3916 3839.26 3916H3791.86V3974.8ZM4014.71 4094.2C3998.51 4094.2 3984.21 4091.3 3971.81 4085.5C3959.41 4079.7 3949.71 4071.4 3942.71 4060.6C3935.71 4049.8 3932.21 4036.8 3932.21 4021.6V4013.2H3971.21V4021.6C3971.21 4034.2 3975.11 4043.7 3982.91 4050.1C3990.71 4056.3 4001.31 4059.4 4014.71 4059.4C4028.31 4059.4 4038.41 4056.7 4045.01 4051.3C4051.81 4045.9 4055.21 4039 4055.21 4030.6C4055.21 4024.8 4053.51 4020.1 4050.11 4016.5C4046.91 4012.9 4042.11 4010 4035.71 4007.8C4029.51 4005.4 4021.91 4003.2 4012.91 4001.2L4006.01 3999.7C3991.61 3996.5 3979.21 3992.5 3968.81 3987.7C3958.61 3982.7 3950.71 3976.2 3945.11 3968.2C3939.71 3960.2 3937.01 3949.8 3937.01 3937C3937.01 3924.2 3940.01 3913.3 3946.01 3904.3C3952.21 3895.1 3960.81 3888.1 3971.81 3883.3C3983.01 3878.3 3996.11 3875.8 4011.11 3875.8C4026.11 3875.8 4039.41 3878.4 4051.01 3883.6C4062.81 3888.6 4072.01 3896.2 4078.61 3906.4C4085.41 3916.4 4088.81 3929 4088.81 3944.2V3953.2H4049.81V3944.2C4049.81 3936.2 4048.21 3929.8 4045.01 3925C4042.01 3920 4037.61 3916.4 4031.81 3914.2C4026.01 3911.8 4019.11 3910.6 4011.11 3910.6C3999.11 3910.6 3990.21 3912.9 3984.41 3917.5C3978.81 3921.9 3976.01 3928 3976.01 3935.8C3976.01 3941 3977.31 3945.4 3979.91 3949C3982.71 3952.6 3986.81 3955.6 3992.21 3958C3997.61 3960.4 4004.51 3962.5 4012.91 3964.3L4019.81 3965.8C4034.81 3969 4047.81 3973.1 4058.81 3978.1C4070.01 3983.1 4078.71 3989.7 4084.91 3997.9C4091.11 4006.1 4094.21 4016.6 4094.21 4029.4C4094.21 4042.2 4090.91 4053.5 4084.31 4063.3C4077.91 4072.9 4068.71 4080.5 4056.71 4086.1C4044.91 4091.5 4030.91 4094.2 4014.71 4094.2Z" fill="white"/>
</svg>
